<?xml version="1.0" encoding="utf-8"?>
<!-- Generator: Adobe Illustrator 19.0.1, SVG Export Plug-In . SVG Version: 6.00 Build 0)  -->
<svg version="1.1" id="Capa_1" xmlns="http://www.w3.org/2000/svg" xmlns:xlink="http://www.w3.org/1999/xlink" x="0px" y="0px"
	 viewBox="0 0 130.2 55.1" style="enable-background:new 0 0 130.2 55.1;" xml:space="preserve">
<style type="text/css">
	.st0{fill:#333333;}
	.st1{fill:#5BBA97;}
	.st2{fill:#676767;}
</style>
<path class="st0" d="M75.5,26.7v4.1c0,0.5-0.4,1-1,1h-2.2c-0.5,0-1-0.4-1-1V17.4c0-1.9,1.5-3.4,3.4-3.4h3.8c2.1,0,3.8,0.5,5,1.6
	c1.2,1.1,1.8,2.5,1.8,4.2c0,1.7-0.6,3.1-1.8,4.2c-1.2,1.1-2.9,1.6-5,1.6h-2.1C75.9,25.7,75.5,26.1,75.5,26.7z M75.5,21.6
	c0,0.5,0.4,1,1,1h2.1c0.9,0,1.6-0.2,2-0.7c0.5-0.5,0.7-1.1,0.7-1.9c0-0.8-0.2-1.4-0.7-1.9c-0.5-0.5-1.1-0.8-2-0.8h-2.1
	c-0.5,0-1,0.4-1,1V21.6z"/>
<path class="st0" d="M95.4,30.2c-0.4,0.6-0.9,1-1.5,1.3c-0.6,0.3-1.3,0.5-2.1,0.5c-1.4,0-2.4-0.4-3.2-1.3c-0.8-0.9-1.2-2.2-1.2-4.1
	v-6.2c0-1,0.8-1.9,1.9-1.9h0.4c1,0,1.9,0.8,1.9,1.9v6.2c0,0.7,0.1,1.3,0.4,1.7c0.3,0.4,0.7,0.5,1.2,0.5c0.4,0,0.8-0.1,1.2-0.2
	c0.3-0.1,0.6-0.3,0.9-0.5v-7.7c0-1,0.8-1.9,1.9-1.9h0.4c1,0,1.9,0.8,1.9,1.9v9.4c0,1-0.8,1.9-1.9,1.9h-0.2
	C96.3,31.8,95.5,31.1,95.4,30.2L95.4,30.2z"/>
<path class="st0" d="M113.7,25.5c0,2-0.4,3.6-1.3,4.8c-0.9,1.2-2.1,1.8-3.8,1.8c-0.7,0-1.4-0.2-1.9-0.5c-0.5-0.3-1-0.8-1.4-1.3l0,0
	c-0.2,0.9-0.9,1.6-1.8,1.6h-0.1c-1,0-1.9-0.8-1.9-1.9V14.7c0-1,0.8-1.9,1.9-1.9h0.4c1,0,1.9,0.8,1.9,1.9v5.2
	c0.4-0.5,0.8-0.9,1.3-1.1c0.5-0.3,1-0.4,1.7-0.4c1.7,0,3,0.6,3.8,1.9c0.9,1.2,1.3,2.9,1.3,5V25.5z M109.6,25.2
	c0-1.2-0.1-2.1-0.4-2.7s-0.8-1-1.6-1c-0.4,0-0.8,0.1-1.1,0.2c-0.3,0.2-0.6,0.4-0.8,0.7V28c0.2,0.3,0.4,0.5,0.8,0.6
	c0.3,0.1,0.7,0.2,1.2,0.2c0.8,0,1.4-0.3,1.6-0.8c0.3-0.6,0.4-1.4,0.4-2.5V25.2z"/>
<path class="st0" d="M117.8,31.8h-0.2c-1.1,0-2-0.9-2-2v-15c0-1.1,0.9-2,2-2h0.2c1.1,0,2,0.9,2,2v15
	C119.8,30.9,118.9,31.8,117.8,31.8z"/>
<path class="st0" d="M125.2,16.9h-1.4c-0.8,0-1.4-0.9-1.4-2.1v0c0-1.1,0.6-2.1,1.4-2.1h1.4c0.8,0,1.4,0.9,1.4,2.1v0
	C126.6,16,126,16.9,125.2,16.9z M125.2,31.8h-1.4c-0.8,0-1.4-0.6-1.4-1.4V20c0-0.8,0.6-1.4,1.4-1.4h1.4c0.8,0,1.4,0.6,1.4,1.4v10.4
	C126.6,31.1,126,31.8,125.2,31.8z"/>
<path class="st1" d="M3.6,6.6c-0.5-1.7,1.4-3.2,3-2.4C14,8,30,16.7,31.7,21.5c0,0,2.2,14.2-2.6,14.8c0,0-9.9,6.2-10.8,6.2
	c0,0-5.6,0.6,2.4-11.3c0.2-0.3,0.4-0.5,0.7-0.6l3.4-2C24.8,28.5,8.1,22.1,3.6,6.6z"/>
<path class="st1" d="M44.6,12.2c0,0,5.4-4.3,4.6,1.2c0,0-0.6,8.3-7.3,10.9c0,0,19.7,9.7,21.2,26.9L38.7,37.5c0,0-4.3-1.5-4.8-9v-7.1
	c0,0,1.3-4.1,3.5-4.8L44.6,12.2z"/>
<path class="st2" d="M75.9,44.2c-0.1-0.1-0.1-0.2-0.2-0.4c-0.1-0.1-0.1-0.3-0.1-0.4c-0.2,0.3-0.5,0.5-0.8,0.7
	c-0.3,0.2-0.7,0.3-1.1,0.3c-0.7,0-1.3-0.2-1.7-0.6c-0.4-0.4-0.7-0.9-0.7-1.6c0-0.7,0.3-1.3,0.8-1.7c0.5-0.4,1.4-0.6,2.5-0.6h0.8
	v-0.5c0-0.3-0.1-0.6-0.2-0.7c-0.1-0.2-0.4-0.2-0.7-0.2c-0.3,0-0.5,0.1-0.6,0.2c-0.1,0.1-0.2,0.3-0.2,0.6l-2.2,0l0,0
	c0-0.7,0.2-1.2,0.8-1.7c0.6-0.4,1.4-0.7,2.3-0.7c0.9,0,1.6,0.2,2.2,0.7c0.6,0.4,0.8,1.1,0.8,1.9v2.8c0,0.4,0,0.8,0.1,1.1
	c0.1,0.3,0.2,0.7,0.3,1L75.9,44.2z M74.4,42.7c0.2,0,0.4,0,0.6-0.1c0.2-0.1,0.3-0.2,0.5-0.4v-1.1h-0.8c-0.4,0-0.6,0.1-0.8,0.3
	c-0.2,0.2-0.2,0.4-0.2,0.7c0,0.2,0.1,0.4,0.2,0.5S74.2,42.7,74.4,42.7z"/>
<path class="st2" d="M81.1,36.9l0.1,1c0.2-0.4,0.5-0.7,0.9-0.9c0.4-0.2,0.7-0.3,1.2-0.3c0.7,0,1.3,0.2,1.7,0.7
	c0.4,0.5,0.6,1.2,0.6,2.2V43c0,0.6-0.5,1.1-1.1,1.1h0c-0.6,0-1.1-0.5-1.1-1.1v-3.4c0-0.4-0.1-0.7-0.3-0.9c-0.2-0.2-0.4-0.3-0.8-0.3
	c-0.2,0-0.4,0-0.6,0.1c-0.2,0.1-0.3,0.2-0.4,0.3V43c0,0.6-0.5,1.1-1.1,1.1l0,0c-0.6,0-1.1-0.5-1.1-1.1v-5c0-0.6,0.5-1.1,1.1-1.1
	H81.1z"/>
<path class="st2" d="M91.2,43.3c-0.2,0.3-0.5,0.6-0.9,0.7c-0.3,0.2-0.7,0.3-1.2,0.3c-0.8,0-1.3-0.2-1.8-0.7s-0.6-1.2-0.6-2.3V38
	c0-0.6,0.5-1.1,1.1-1.1h0c0.6,0,1.1,0.5,1.1,1.1v3.3c0,0.4,0.1,0.7,0.2,0.9c0.2,0.2,0.4,0.3,0.7,0.3c0.2,0,0.5,0,0.6-0.1
	c0.2-0.1,0.3-0.2,0.5-0.3V38c0-0.6,0.5-1.1,1.1-1.1h0c0.6,0,1.1,0.5,1.1,1.1v5c0,0.6-0.5,1.1-1.1,1.1h-0.9L91.2,43.3z"/>
<path class="st2" d="M96.7,36.9l0.1,1c0.2-0.4,0.5-0.7,0.9-0.9c0.4-0.2,0.7-0.3,1.2-0.3c0.7,0,1.3,0.2,1.7,0.7
	c0.4,0.5,0.6,1.2,0.6,2.2V43c0,0.6-0.5,1.1-1.1,1.1h0c-0.6,0-1.1-0.5-1.1-1.1v-3.4c0-0.4-0.1-0.7-0.3-0.9c-0.2-0.2-0.4-0.3-0.8-0.3
	c-0.2,0-0.4,0-0.6,0.1c-0.2,0.1-0.3,0.2-0.4,0.3V43c0,0.6-0.5,1.1-1.1,1.1l0,0c-0.6,0-1.1-0.5-1.1-1.1v-5c0-0.6,0.5-1.1,1.1-1.1
	H96.7z"/>
<path class="st2" d="M105.5,42.6c0.3,0,0.5-0.1,0.7-0.2c0.1-0.2,0.2-0.4,0.2-0.7h2.1l0,0c0,0.8-0.3,1.4-0.8,1.9
	c-0.6,0.5-1.3,0.8-2.2,0.8c-1.1,0-2-0.3-2.6-1c-0.6-0.7-0.9-1.6-0.9-2.7v-0.2c0-1.1,0.3-2,0.9-2.7c0.6-0.7,1.4-1,2.5-1
	c0.9,0,1.7,0.3,2.2,0.8c0.6,0.5,0.8,1.2,0.8,2.1l0,0h-2.1c0-0.3-0.1-0.6-0.2-0.8c-0.2-0.2-0.4-0.3-0.7-0.3c-0.4,0-0.7,0.2-0.9,0.5
	c-0.2,0.4-0.3,0.8-0.3,1.4v0.2c0,0.6,0.1,1.1,0.3,1.4C104.7,42.4,105,42.6,105.5,42.6z"/>
<path class="st2" d="M111,35.8h-0.8c-0.4,0-0.8-0.5-0.8-1.1v0c0-0.6,0.3-1.1,0.8-1.1h0.8c0.4,0,0.8,0.5,0.8,1.1v0
	C111.8,35.3,111.5,35.8,111,35.8z"/>
<path class="st2" d="M110.9,44.2h-0.4c-0.5,0-0.9-0.4-0.9-0.9v-5.5c0-0.5,0.4-0.9,0.9-0.9h0.4c0.5,0,0.9,0.4,0.9,0.9v5.5
	C111.8,43.8,111.4,44.2,110.9,44.2z"/>
<path class="st2" d="M112.9,40.4c0-1.1,0.3-2,0.9-2.7c0.6-0.7,1.5-1,2.6-1c1.1,0,2,0.3,2.6,1c0.6,0.7,0.9,1.6,0.9,2.7v0.1
	c0,1.1-0.3,2-0.9,2.7c-0.6,0.7-1.5,1-2.6,1c-1.1,0-2-0.3-2.6-1c-0.6-0.7-0.9-1.6-0.9-2.7V40.4z M115.2,40.6c0,0.6,0.1,1.1,0.3,1.4
	c0.2,0.3,0.5,0.5,1,0.5c0.4,0,0.8-0.2,1-0.5c0.2-0.4,0.3-0.8,0.3-1.4v-0.1c0-0.6-0.1-1.1-0.3-1.4c-0.2-0.4-0.5-0.5-1-0.5
	c-0.5,0-0.8,0.2-1,0.5c-0.2,0.4-0.3,0.8-0.3,1.4V40.6z"/>
<path class="st2" d="M124.8,42.1c0-0.2-0.1-0.3-0.3-0.5c-0.2-0.1-0.6-0.3-1.1-0.4c-0.9-0.2-1.5-0.4-1.9-0.8s-0.6-0.8-0.6-1.4
	c0-0.6,0.3-1.2,0.8-1.6c0.5-0.4,1.3-0.7,2.2-0.7c1,0,1.7,0.2,2.3,0.7c0.6,0.4,0.9,1,0.8,1.7l0,0h-2.2c0-0.3-0.1-0.5-0.2-0.7
	s-0.4-0.2-0.7-0.2c-0.2,0-0.4,0.1-0.6,0.2c-0.2,0.1-0.2,0.3-0.2,0.5c0,0.2,0.1,0.4,0.3,0.5s0.6,0.3,1.1,0.4c0.9,0.2,1.6,0.4,2,0.8
	c0.4,0.3,0.6,0.8,0.6,1.5c0,0.7-0.3,1.2-0.9,1.6c-0.6,0.4-1.4,0.6-2.3,0.6c-1,0-1.8-0.3-2.4-0.8c-0.6-0.5-0.9-1.1-0.8-1.7l0,0h2.1
	c0,0.3,0.1,0.6,0.3,0.7c0.2,0.2,0.5,0.2,0.9,0.2c0.3,0,0.5-0.1,0.7-0.2C124.7,42.5,124.8,42.3,124.8,42.1z"/>
</svg>
